<?xml version="1.0" encoding="UTF-8" standalone="no"?>
<!-- Generator: Adobe Illustrator 10.0.3, SVG Export Plug-In . SVG Version: 3.0.0 Build 77)  -->
<svg
   xmlns:a="http://ns.adobe.com/AdobeSVGViewerExtensions/3.0/"
   xmlns:dc="http://purl.org/dc/elements/1.1/"
   xmlns:cc="http://web.resource.org/cc/"
   xmlns:rdf="http://www.w3.org/1999/02/22-rdf-syntax-ns#"
   xmlns:svg="http://www.w3.org/2000/svg"
   xmlns="http://www.w3.org/2000/svg"
   xmlns:xlink="http://www.w3.org/1999/xlink"
   xmlns:sodipodi="http://inkscape.sourceforge.net/DTD/sodipodi-0.dtd"
   xmlns:inkscape="http://www.inkscape.org/namespaces/inkscape"
   width="128"
   height="128"
   viewBox="0 0 128 128"
   overflow="visible"
   enable-background="new 0 0 128 128"
   xml:space="preserve"
   id="svg2595"
   sodipodi:version="0.32"
   inkscape:version="0.42"
   sodipodi:docname="convert_to_pic.svg"
   sodipodi:docbase="/home/david/devel/svn.ktechlab.org/icons/SVG_action">
  <defs
   id="defs2752"><linearGradient
   id="linearGradient2222"
   gradientUnits="userSpaceOnUse"
   x1="43.0229"
   y1="25.4214"
   x2="204.0072"
   y2="111.0654">
					<stop
   offset="0.0000000"
   style="stop-color:#86e846;stop-opacity:1.0000000;"
   id="stop2224" />















					<stop
   offset="0.70999998"
   style="stop-color:#d2e8c3;stop-opacity:1.0000000;"
   id="stop2226" />















					<stop
   offset="1.0000000"
   style="stop-color:#86e846;stop-opacity:1.0000000;"
   id="stop2228" />















					<a:midPointStop
   offset="0"
   style="stop-color:#FFFFFF"
   id="midPointStop2230" />















					<a:midPointStop
   offset="0.5254"
   style="stop-color:#FFFFFF"
   id="midPointStop2232" />















					<a:midPointStop
   offset="1"
   style="stop-color:#D4D4D4"
   id="midPointStop2234" />















				</linearGradient>


<linearGradient
   inkscape:collect="always"
   xlink:href="#linearGradient2222"
   id="linearGradient1710"
   x1="68.930426"
   y1="132.90085"
   x2="68.930426"
   y2="62.093739"
   gradientTransform="matrix(1.049432,0.000000,0.000000,0.952897,-103.7447,-17.86170)"
   gradientUnits="userSpaceOnUse" />



<radialGradient
   id="radialGradient1709"
   cx="108.4668"
   cy="118.249"
   r="34.7364"
   fx="108.4668"
   fy="118.249"
   gradientUnits="userSpaceOnUse">
					<stop
   offset="0.0000000"
   style="stop-color:#0053bd;stop-opacity:1.0000000;"
   id="stop1711" />















					<stop
   offset="1.0000000"
   style="stop-color:#b3caff;stop-opacity:1.0000000;"
   id="stop1713" />















					<a:midPointStop
   offset="0"
   style="stop-color:#FFFFFF"
   id="midPointStop1715" />















					<a:midPointStop
   offset="0.5"
   style="stop-color:#FFFFFF"
   id="midPointStop1717" />















					<a:midPointStop
   offset="1"
   style="stop-color:#000000"
   id="midPointStop1719" />















				</radialGradient>








<linearGradient
   id="linearGradient1699">
      <stop
   style="stop-color:#e8e8e8;stop-opacity:1.0000000;"
   offset="0.0000000"
   id="stop1701" />














      <stop
   style="stop-color:#86e846;stop-opacity:1.0000000;"
   offset="1.0000000"
   id="stop1703" />














    </linearGradient>









    <linearGradient
   id="linearGradient5044">
      <stop
   style="stop-color:#a4caff;stop-opacity:1.0000000;"
   offset="0.0000000"
   id="stop5045" />














      <stop
   style="stop-color:#fff;stop-opacity:1;"
   offset="1"
   id="stop5046" />














    </linearGradient>














    





    





  <linearGradient
   id="XMLID_1_"
   gradientUnits="userSpaceOnUse"
   x1="63.9204"
   y1="154.5645"
   x2="63.9204"
   y2="-100.9357">
					<stop
   offset="0"
   style="stop-color:#FFFFFF"
   id="stop2607" />















					<stop
   offset="0.2458"
   style="stop-color:#F6F6F6"
   id="stop2609" />















					<stop
   offset="0.6375"
   style="stop-color:#DFDFDF"
   id="stop2611" />















					<stop
   offset="1"
   style="stop-color:#C4C4C4"
   id="stop2613" />















					<a:midPointStop
   offset="0"
   style="stop-color:#FFFFFF"
   id="midPointStop2615" />















					<a:midPointStop
   offset="0.6045"
   style="stop-color:#FFFFFF"
   id="midPointStop2617" />















					<a:midPointStop
   offset="1"
   style="stop-color:#C4C4C4"
   id="midPointStop2619" />















				</linearGradient>









<linearGradient
   id="XMLID_2_"
   gradientUnits="userSpaceOnUse"
   x1="-26.333"
   y1="-26.333"
   x2="56.1662"
   y2="56.1662">
					<stop
   offset="0"
   style="stop-color:#B3B3B3"
   id="stop2626" />















					<stop
   offset="1"
   style="stop-color:#828282"
   id="stop2628" />















					<a:midPointStop
   offset="0"
   style="stop-color:#B3B3B3"
   id="midPointStop2630" />















					<a:midPointStop
   offset="0.5"
   style="stop-color:#B3B3B3"
   id="midPointStop2632" />















					<a:midPointStop
   offset="1"
   style="stop-color:#828282"
   id="midPointStop2634" />















				</linearGradient>









<linearGradient
   id="XMLID_3_"
   gradientUnits="userSpaceOnUse"
   x1="43.0229"
   y1="25.4214"
   x2="204.0072"
   y2="111.0654">
					<stop
   offset="0.0000000"
   style="stop-color:#86e846;stop-opacity:1.0000000;"
   id="stop2641" />















					<stop
   offset="0.70999998"
   style="stop-color:#d2e8c3;stop-opacity:1.0000000;"
   id="stop2643" />















					<stop
   offset="1.0000000"
   style="stop-color:#86e846;stop-opacity:1.0000000;"
   id="stop2645" />















					<a:midPointStop
   offset="0"
   style="stop-color:#FFFFFF"
   id="midPointStop2647" />















					<a:midPointStop
   offset="0.5254"
   style="stop-color:#FFFFFF"
   id="midPointStop2649" />















					<a:midPointStop
   offset="1"
   style="stop-color:#D4D4D4"
   id="midPointStop2651" />















				</linearGradient>









<linearGradient
   id="XMLID_4_"
   gradientUnits="userSpaceOnUse"
   x1="-56.6899"
   y1="10.6509"
   x2="77.6484"
   y2="10.6509">
					<stop
   offset="0.0000000"
   style="stop-color:#ffffff;stop-opacity:1.0000000;"
   id="stop2658" />















					






					






					






					<stop
   offset="1.0000000"
   style="stop-color:#987dff;stop-opacity:1.0000000;"
   id="stop2666" />















					<a:midPointStop
   offset="0"
   style="stop-color:#FFFFFF"
   id="midPointStop2668" />















					<a:midPointStop
   offset="0.4"
   style="stop-color:#FFFFFF"
   id="midPointStop2670" />















					<a:midPointStop
   offset="0.1854"
   style="stop-color:#C5F0FF"
   id="midPointStop2672" />















					<a:midPointStop
   offset="0.5"
   style="stop-color:#C5F0FF"
   id="midPointStop2674" />















					<a:midPointStop
   offset="1"
   style="stop-color:#1D74D9"
   id="midPointStop2676" />















				</linearGradient>









<radialGradient
   id="XMLID_5_"
   cx="108.4668"
   cy="118.249"
   r="34.7364"
   fx="108.4668"
   fy="118.249"
   gradientUnits="userSpaceOnUse">
					<stop
   offset="0.0000000"
   style="stop-color:#ffffff;stop-opacity:1.0000000;"
   id="stop2683" />















					<stop
   offset="1.0000000"
   style="stop-color:#987dff;stop-opacity:1.0000000;"
   id="stop2685" />















					<a:midPointStop
   offset="0"
   style="stop-color:#FFFFFF"
   id="midPointStop2687" />















					<a:midPointStop
   offset="0.5"
   style="stop-color:#FFFFFF"
   id="midPointStop2689" />















					<a:midPointStop
   offset="1"
   style="stop-color:#000000"
   id="midPointStop2691" />















				</radialGradient>









<linearGradient
   id="XMLID_6_"
   gradientUnits="userSpaceOnUse"
   x1="104.0176"
   y1="98.1816"
   x2="95.089"
   y2="135.7953">
					<stop
   offset="0.0000000"
   style="stop-color:#ffffff;stop-opacity:1.0000000;"
   id="stop2700" />















					<stop
   offset="1"
   style="stop-color:#CCCCCC"
   id="stop2702" />















					<a:midPointStop
   offset="0"
   style="stop-color:#FFFFFF"
   id="midPointStop2704" />















					<a:midPointStop
   offset="0.5"
   style="stop-color:#FFFFFF"
   id="midPointStop2706" />















					<a:midPointStop
   offset="1"
   style="stop-color:#CCCCCC"
   id="midPointStop2708" />















				</linearGradient>









<linearGradient
   id="XMLID_7_"
   gradientUnits="userSpaceOnUse"
   x1="82.3086"
   y1="88.0928"
   x2="96.1043"
   y2="101.8885">
					<stop
   offset="0.0000000"
   style="stop-color:#b3b3b3;stop-opacity:1.0000000;"
   id="stop2715" />















					<stop
   offset="1"
   style="stop-color:#828282"
   id="stop2717" />















					<a:midPointStop
   offset="0"
   style="stop-color:#B3B3B3"
   id="midPointStop2719" />















					<a:midPointStop
   offset="0.5"
   style="stop-color:#B3B3B3"
   id="midPointStop2721" />















					<a:midPointStop
   offset="1"
   style="stop-color:#828282"
   id="midPointStop2723" />















				</linearGradient>





















<linearGradient
   inkscape:collect="always"
   xlink:href="#aigrd1"
   id="linearGradient1568"
   gradientUnits="userSpaceOnUse"
   gradientTransform="matrix(0.998800,-5.000000e-2,5.000000e-2,0.998800,4.877400,1.059800)"
   x1="110.9321"
   y1="93.8916"
   x2="125.8384"
   y2="93.8916" />


<linearGradient
   inkscape:collect="always"
   xlink:href="#aigrd2"
   id="linearGradient1569"
   gradientUnits="userSpaceOnUse"
   gradientTransform="matrix(1.073600,-5.370000e-2,5.410000e-2,1.082000,2.603200,6.286500)"
   x1="100.8462"
   y1="74.2588"
   x2="113.8833"
   y2="74.2588" />


<linearGradient
   inkscape:collect="always"
   xlink:href="#aigrd3"
   id="linearGradient1570"
   gradientUnits="userSpaceOnUse"
   x1="121.479"
   y1="86.498"
   x2="135.4263"
   y2="86.498" />


<linearGradient
   inkscape:collect="always"
   xlink:href="#aigrd4"
   id="linearGradient1571"
   gradientUnits="userSpaceOnUse"
   x1="107.3989"
   y1="81.1992"
   x2="135.4296"
   y2="81.1992" />


<linearGradient
   inkscape:collect="always"
   xlink:href="#aigrd5"
   id="linearGradient1572"
   gradientUnits="userSpaceOnUse"
   gradientTransform="matrix(0.998800,-5.000000e-2,5.000000e-2,0.998800,4.877400,1.059800)"
   x1="88.7876"
   y1="75.4854"
   x2="103.6948"
   y2="75.4854" />


<linearGradient
   inkscape:collect="always"
   xlink:href="#aigrd6"
   id="linearGradient1573"
   gradientUnits="userSpaceOnUse"
   gradientTransform="matrix(1.073600,-5.370000e-2,5.410000e-2,1.082000,2.603200,6.286500)"
   x1="80.2446"
   y1="57.2695"
   x2="93.2817"
   y2="57.2695" />


<linearGradient
   inkscape:collect="always"
   xlink:href="#aigrd7"
   id="linearGradient1574"
   gradientUnits="userSpaceOnUse"
   x1="98.4409"
   y1="69.2227"
   x2="112.3882"
   y2="69.2227" />


<linearGradient
   inkscape:collect="always"
   xlink:href="#aigrd8"
   id="linearGradient1575"
   gradientUnits="userSpaceOnUse"
   x1="84.3608"
   y1="63.9229"
   x2="112.3923"
   y2="63.9229" />


<linearGradient
   inkscape:collect="always"
   xlink:href="#aigrd9"
   id="linearGradient1576"
   gradientUnits="userSpaceOnUse"
   gradientTransform="matrix(0.998800,-5.000000e-2,5.000000e-2,0.998800,4.877400,1.059800)"
   x1="67.1655"
   y1="57.4395"
   x2="82.0728"
   y2="57.4395" />


<linearGradient
   inkscape:collect="always"
   xlink:href="#aigrd10"
   id="linearGradient1577"
   gradientUnits="userSpaceOnUse"
   gradientTransform="matrix(1.073600,-5.370000e-2,5.410000e-2,1.082000,2.603200,6.286500)"
   x1="60.1289"
   y1="40.6113"
   x2="73.1655"
   y2="40.6113" />


<linearGradient
   inkscape:collect="always"
   xlink:href="#aigrd11"
   id="linearGradient1578"
   gradientUnits="userSpaceOnUse"
   x1="75.9429"
   y1="52.2783"
   x2="89.8911"
   y2="52.2783" />


<linearGradient
   inkscape:collect="always"
   xlink:href="#aigrd12"
   id="linearGradient1579"
   gradientUnits="userSpaceOnUse"
   x1="61.8623"
   y1="46.9795"
   x2="89.8938"
   y2="46.9795" />


<linearGradient
   inkscape:collect="always"
   xlink:href="#aigrd13"
   id="linearGradient1580"
   gradientUnits="userSpaceOnUse"
   x1="59.021"
   y1="122.7236"
   x2="59.021"
   y2="122.7236" />


<linearGradient
   inkscape:collect="always"
   xlink:href="#aigrd14"
   id="linearGradient1581"
   gradientUnits="userSpaceOnUse"
   x1="-46.7803"
   y1="-14.248"
   x2="119.8942"
   y2="114.7903" />


<linearGradient
   inkscape:collect="always"
   xlink:href="#aigrd15"
   id="linearGradient1582"
   gradientUnits="userSpaceOnUse"
   x1="115.064"
   y1="88.6094"
   x2="67.66"
   y2="106.86" />


<linearGradient
   inkscape:collect="always"
   xlink:href="#aigrd16"
   id="linearGradient1583"
   gradientUnits="userSpaceOnUse"
   x1="66.2485"
   y1="36.2827"
   x2="69.0401"
   y2="118.6349" />


<linearGradient
   inkscape:collect="always"
   xlink:href="#aigrd17"
   id="linearGradient1584"
   gradientUnits="userSpaceOnUse"
   x1="96.9263"
   y1="91.3799"
   x2="90.1168"
   y2="71.0062" />


<linearGradient
   inkscape:collect="always"
   xlink:href="#aigrd18"
   id="linearGradient1585"
   gradientUnits="userSpaceOnUse"
   x1="20.6729"
   y1="47.1401"
   x2="81.6515"
   y2="136.008" />


<linearGradient
   inkscape:collect="always"
   xlink:href="#aigrd19"
   id="linearGradient1586"
   gradientUnits="userSpaceOnUse"
   x1="85.8696"
   y1="20.8975"
   x2="85.8696"
   y2="106.5631" />


<linearGradient
   inkscape:collect="always"
   xlink:href="#aigrd20"
   id="linearGradient1587"
   gradientUnits="userSpaceOnUse"
   x1="38.5029"
   y1="111.8145"
   x2="69.7998"
   y2="111.8145" />


<linearGradient
   inkscape:collect="always"
   xlink:href="#aigrd21"
   id="linearGradient1588"
   gradientUnits="userSpaceOnUse"
   gradientTransform="matrix(0.999300,3.700000e-2,-3.700000e-2,0.999300,-1.430000,1.806200)"
   x1="53.1753"
   y1="107.9199"
   x2="83.9026"
   y2="107.9199" />


<linearGradient
   inkscape:collect="always"
   xlink:href="#aigrd22"
   id="linearGradient1589"
   gradientUnits="userSpaceOnUse"
   gradientTransform="matrix(0.999300,3.700000e-2,-3.700000e-2,0.999300,-1.430000,1.806200)"
   x1="52.4473"
   y1="107.1396"
   x2="65.0503"
   y2="107.1396" />


<linearGradient
   inkscape:collect="always"
   xlink:href="#aigrd23"
   id="linearGradient1590"
   gradientUnits="userSpaceOnUse"
   gradientTransform="matrix(0.999300,3.700000e-2,-3.700000e-2,0.999300,-1.430000,1.806200)"
   x1="47.2754"
   y1="118.8193"
   x2="62.1831"
   y2="118.8193" />


<linearGradient
   inkscape:collect="always"
   xlink:href="#aigrd24"
   id="linearGradient1591"
   gradientUnits="userSpaceOnUse"
   x1="18.7959"
   y1="94.0947"
   x2="50.0928"
   y2="94.0947" />


<linearGradient
   inkscape:collect="always"
   xlink:href="#aigrd25"
   id="linearGradient1592"
   gradientUnits="userSpaceOnUse"
   gradientTransform="matrix(0.999300,3.700000e-2,-3.700000e-2,0.999300,-1.430000,1.806200)"
   x1="32.8257"
   y1="90.9404"
   x2="63.5536"
   y2="90.9404" />


<linearGradient
   inkscape:collect="always"
   xlink:href="#aigrd26"
   id="linearGradient1593"
   gradientUnits="userSpaceOnUse"
   gradientTransform="matrix(0.999300,3.700000e-2,-3.700000e-2,0.999300,-1.430000,1.806200)"
   x1="32.0981"
   y1="90.1611"
   x2="44.7007"
   y2="90.1611" />


<linearGradient
   inkscape:collect="always"
   xlink:href="#aigrd27"
   id="linearGradient1594"
   gradientUnits="userSpaceOnUse"
   gradientTransform="matrix(0.999300,3.700000e-2,-3.700000e-2,0.999300,-1.430000,1.806200)"
   x1="26.9258"
   y1="101.8398"
   x2="41.8335"
   y2="101.8398" />


<linearGradient
   inkscape:collect="always"
   xlink:href="#aigrd28"
   id="linearGradient1595"
   gradientUnits="userSpaceOnUse"
   x1="0.209"
   y1="76.5342"
   x2="31.5059"
   y2="76.5342" />


<linearGradient
   inkscape:collect="always"
   xlink:href="#aigrd29"
   id="linearGradient1596"
   gradientUnits="userSpaceOnUse"
   gradientTransform="matrix(0.999300,3.700000e-2,-3.700000e-2,0.999300,-1.430000,1.806200)"
   x1="13.6016"
   y1="74.0801"
   x2="44.3288"
   y2="74.0801" />


<linearGradient
   inkscape:collect="always"
   xlink:href="#aigrd30"
   id="linearGradient1597"
   gradientUnits="userSpaceOnUse"
   gradientTransform="matrix(0.999300,3.700000e-2,-3.700000e-2,0.999300,-1.430000,1.806200)"
   x1="12.874"
   y1="73.3008"
   x2="25.4771"
   y2="73.3008" />


<linearGradient
   inkscape:collect="always"
   xlink:href="#aigrd31"
   id="linearGradient1598"
   gradientUnits="userSpaceOnUse"
   gradientTransform="matrix(0.999300,3.700000e-2,-3.700000e-2,0.999300,-1.430000,1.806200)"
   x1="7.7017"
   y1="84.9785"
   x2="22.6094"
   y2="84.9785" />


</defs>






  <sodipodi:namedview
   id="base"
   pagecolor="#ffffff"
   bordercolor="#666666"
   borderopacity="1.0"
   inkscape:pageopacity="0.0"
   inkscape:pageshadow="2"
   inkscape:zoom="8.1739133"
   inkscape:cx="46.238831"
   inkscape:cy="51.750043"
   inkscape:window-width="1592"
   inkscape:window-height="1104"
   showgrid="false"
   inkscape:grid-bbox="false"
   showguides="true"
   inkscape:guide-bbox="true"
   inkscape:window-x="0"
   inkscape:window-y="0"
   inkscape:current-layer="svg2595" />






  <metadata
   id="metadata2753">
    <rdf:RDF>
      <cc:Work
   rdf:about="">
        <dc:format>image/svg+xml</dc:format>














        <dc:type
   rdf:resource="http://purl.org/dc/dcmitype/StillImage" />














      </cc:Work>














    </rdf:RDF>














  </metadata>






  




	
		
			
			
			
				
				
				
				
				
				
				
				
				
				
				
				
				
				
				
				


				
				
				
			
			
			
			
		
		
	







  

  

  

  






  
<g
   id="g1228"
   transform="matrix(0.878933,0.000000,0.000000,0.878933,0.764630,-17.73937)"
   style="opacity:0.76328502;">
	<g
   id="Layer_x0020_1"
   style="fill:#ffffff;fill-rule:nonzero;stroke:#ffffff;stroke-width:0.0000000;stroke-miterlimit:4.0000000;">
		<path
   style="fill:none;stroke:none;"
   d="M 144.00000,144.00000 L 0.0000000,144.00000 L 0.0000000,0.0000000 L 144.00000,0.0000000 L 144.00000,144.00000 z "
   id="path1232" />



		<path
   style="opacity:0.20000000;fill:#000030;stroke:none;"
   d="M 143.12800,99.640000 L 143.11000,94.792000 L 140.24700,92.563000 C 140.24700,92.563000 137.53200,90.389000 136.56900,89.618000 C 136.45400,88.147000 136.01900,82.575000 136.01900,82.575000 L 135.78400,79.114000 L 130.51400,75.038000 L 119.16000,66.587000 L 117.51700,67.145000 C 116.18500,66.143000 114.64100,64.983000 112.86900,63.651000 L 112.74600,61.838000 L 107.47700,57.762000 L 96.122000,49.311000 L 94.504000,49.861000 C 93.140000,48.837000 91.759000,47.799000 90.376000,46.761000 L 90.249000,44.894000 L 84.979000,40.818000 L 73.624000,32.367000 L 71.985000,32.924000 C 67.551000,29.577000 64.469000,27.235000 63.981000,26.823000 C 62.799000,25.825000 61.027000,25.628000 59.662000,26.355000 L 59.714000,26.328000 C 58.484000,26.946000 46.769000,31.722000 37.356000,35.558000 C 22.619000,41.565000 18.214000,43.378000 17.418000,43.816000 C 16.208000,44.483000 15.457000,45.746000 15.460000,47.129000 L 15.498000,62.078000 L 11.239000,64.145000 C 11.239000,64.145000 11.568000,82.399000 11.597000,84.068000 C 10.553000,84.582000 5.3840000,87.127000 5.3840000,87.127000 L 5.0580000,92.563000 L 16.399000,103.65900 L 26.194000,98.812000 C 26.194000,98.812000 26.780000,97.723000 26.839000,97.614000 C 26.926000,97.475000 28.223000,95.389000 28.223000,95.389000 C 28.223000,95.389000 28.916000,91.012000 29.561000,86.946000 L 29.925000,87.276000 C 30.025000,92.793000 30.165000,100.56700 30.184000,101.63000 C 29.140000,102.14400 23.970000,104.68900 23.970000,104.68900 L 23.644000,110.12500 L 34.984000,121.22100 L 44.780000,116.37300 C 44.780000,116.37300 45.366000,115.28500 45.426000,115.17500 C 45.512000,115.03600 46.810000,112.95100 46.810000,112.95100 C 46.810000,112.95100 47.579000,108.10100 48.249000,103.86800 L 49.635000,105.12300 C 49.734000,110.63100 49.872000,118.29700 49.892000,119.35100 C 48.848000,119.86600 43.679000,122.41100 43.679000,122.41100 L 43.352000,127.84700 L 54.693000,138.94100 L 64.487000,134.09500 C 64.487000,134.09500 65.073000,133.00600 65.133000,132.89600 C 65.220000,132.75700 66.517000,130.67200 66.517000,130.67200 C 66.517000,130.67200 67.272000,125.90500 67.939000,121.69800 L 75.435000,128.48500 C 76.613000,129.55100 78.388000,129.75600 79.793000,129.01400 L 125.22100,105.03100 C 126.46600,104.37400 127.20200,103.11600 127.19700,101.70900 L 127.18800,99.730000 L 134.42300,105.51100 L 143.12800,99.642000 L 143.12800,99.640000 z M 135.44500,92.351000 L 133.83800,91.065000 L 133.67000,88.909000 L 133.83800,91.065000 L 135.44500,92.351000 z M 133.12600,80.663000 L 128.77600,77.278000 L 127.05100,75.909000 L 127.05100,75.908000 L 128.77400,77.276000 L 133.12600,80.663000 L 133.12600,80.663000 z "
   id="path1234" />



		<g
   style="stroke:none;"
   id="g1236">
			<g
   id="g1238">
				<linearGradient
   id="aigrd1"
   gradientUnits="userSpaceOnUse"
   x1="110.93210"
   y1="93.891602"
   x2="125.83840"
   y2="93.891602"
   gradientTransform="matrix(0.998800,-5.000000e-2,5.000000e-2,0.998800,4.877400,1.059800)">
					<stop
   offset="0"
   style="stop-color:#FFFFE1;"
   id="stop1242" />



					<stop
   offset="1"
   style="stop-color:#FFB800;"
   id="stop1244" />



				</linearGradient>



				<path
   style="fill:url(#linearGradient1568);"
   d="M 120.22500,86.378000 L 130.16100,94.536000 L 135.40000,91.348000 L 125.35800,83.308000 L 120.22500,86.377000 L 120.22500,86.378000 z "
   id="path1247" />



				<linearGradient
   id="aigrd2"
   gradientUnits="userSpaceOnUse"
   x1="100.84620"
   y1="74.258797"
   x2="113.88330"
   y2="74.258797"
   gradientTransform="matrix(1.073600,-5.370000e-2,5.410000e-2,1.082000,2.603200,6.286500)">
					<stop
   offset="0"
   style="stop-color:#FFFFE1;"
   id="stop1251" />



					<stop
   offset="1"
   style="stop-color:#FFB800;"
   id="stop1253" />



				</linearGradient>



				<path
   style="fill:url(#linearGradient1569);"
   d="M 116.95500,86.945000 L 116.21100,85.102000 L 114.05800,64.593000 L 128.18400,75.807000 L 127.86400,93.016000 L 129.71800,97.143000 L 116.95600,86.945000 L 116.95500,86.945000 z "
   id="path1256" />



				<path
   d="M 107.39700,67.259000 L 121.47900,78.495000 L 128.27900,75.813000 L 114.04800,64.743000 L 107.39800,67.259000 L 107.39700,67.259000 z "
   id="path1258" />



				<linearGradient
   id="aigrd3"
   gradientUnits="userSpaceOnUse"
   x1="121.47900"
   y1="86.498001"
   x2="135.42630"
   y2="86.498001">
					<stop
   offset="0"
   style="stop-color:#FFAE00;"
   id="stop1262" />



					<stop
   offset="1"
   style="stop-color:#4C1C00;"
   id="stop1264" />



				</linearGradient>



				<path
   style="fill:url(#linearGradient1570);"
   d="M 121.47900,78.495000 L 128.17900,75.852000 L 129.46200,92.276000 L 130.23200,94.176000 L 135.40000,91.032000 L 135.42600,93.293000 L 129.71600,97.143000 L 127.43300,93.129000 L 125.95500,79.149000 L 121.48500,80.942000 L 121.47800,78.495000 L 121.47900,78.495000 z "
   id="path1267" />



				<linearGradient
   id="aigrd4"
   gradientUnits="userSpaceOnUse"
   x1="107.39890"
   y1="81.199203"
   x2="135.42960"
   y2="81.199203">
					<stop
   offset="0"
   style="stop-color:#FFAE00;"
   id="stop1271" />



					<stop
   offset="1"
   style="stop-color:#4C1C00;"
   id="stop1273" />



				</linearGradient>



				<path
   style="fill:url(#linearGradient1571);"
   d="M 114.31200,61.738000 L 125.66700,70.189000 L 130.93500,74.265000 L 131.17100,77.726000 C 131.17100,77.726000 131.60600,83.298000 131.72100,84.771000 C 132.68500,85.542000 135.39800,87.714000 135.39800,87.714000 L 138.26300,89.944000 L 138.28000,94.790000 L 129.57400,100.66000 L 114.60300,88.696000 L 113.43100,85.794000 C 113.43100,85.794000 112.47500,76.692000 112.27500,74.780000 C 110.84600,73.639000 101.73400,66.368000 101.73400,66.368000 L 111.02500,62.854000 L 114.31200,61.737000 L 114.31200,61.738000 z M 135.40000,91.033000 L 135.17600,91.169000 L 128.98800,86.216000 L 128.18000,75.878000 L 128.18000,75.852000 L 128.27800,75.814000 L 123.92400,72.428000 L 114.05600,64.594000 L 114.07500,64.767000 L 114.04700,64.745000 L 107.39700,67.261000 L 114.97200,73.305000 L 116.21000,85.104000 L 116.95400,86.947000 L 129.71600,97.145000 L 135.42600,93.295000 L 135.40000,91.034000 L 135.40000,91.033000 z "
   id="path1276" />



			</g>



			<g
   id="g1279">
				<linearGradient
   id="aigrd5"
   gradientUnits="userSpaceOnUse"
   x1="88.787598"
   y1="75.485397"
   x2="103.69480"
   y2="75.485397"
   gradientTransform="matrix(0.998800,-5.000000e-2,5.000000e-2,0.998800,4.877400,1.059800)">
					<stop
   offset="0"
   style="stop-color:#FFFFE1;"
   id="stop1283" />



					<stop
   offset="1"
   style="stop-color:#FFB800;"
   id="stop1285" />



				</linearGradient>



				<path
   style="fill:url(#linearGradient1572);"
   d="M 97.187000,69.102000 L 107.12300,77.260000 L 112.36300,74.073000 L 102.32100,66.032000 L 97.187000,69.101000 L 97.187000,69.102000 z "
   id="path1288" />



				<linearGradient
   id="aigrd6"
   gradientUnits="userSpaceOnUse"
   x1="80.244598"
   y1="57.269501"
   x2="93.281700"
   y2="57.269501"
   gradientTransform="matrix(1.073600,-5.370000e-2,5.410000e-2,1.082000,2.603200,6.286500)">
					<stop
   offset="0"
   style="stop-color:#FFFFE1;"
   id="stop1292" />



					<stop
   offset="1"
   style="stop-color:#FFB800;"
   id="stop1294" />



				</linearGradient>



				<path
   style="fill:url(#linearGradient1573);"
   d="M 93.917000,69.669000 L 93.172000,67.826000 L 91.020000,47.317000 L 105.14500,58.531000 L 104.82600,75.739000 L 106.68000,79.867000 L 93.917000,69.669000 z "
   id="path1297" />



				<path
   d="M 84.359000,49.983000 L 98.441000,61.219000 L 105.24100,58.538000 L 91.011000,47.468000 L 84.360000,49.983000 L 84.359000,49.983000 z "
   id="path1299" />



				<linearGradient
   id="aigrd7"
   gradientUnits="userSpaceOnUse"
   x1="98.440903"
   y1="69.222702"
   x2="112.38820"
   y2="69.222702">
					<stop
   offset="0"
   style="stop-color:#FFAE00;"
   id="stop1303" />



					<stop
   offset="1"
   style="stop-color:#4C1C00;"
   id="stop1305" />



				</linearGradient>



				<path
   style="fill:url(#linearGradient1574);"
   d="M 98.441000,61.219000 L 105.14200,58.576000 L 106.42500,75.000000 L 107.19500,76.901000 L 112.36300,73.757000 L 112.38800,76.017000 L 106.67900,79.868000 L 104.39600,75.854000 L 102.91800,61.872000 L 98.448000,63.667000 L 98.440000,61.219000 L 98.441000,61.219000 z "
   id="path1308" />



				<linearGradient
   id="aigrd8"
   gradientUnits="userSpaceOnUse"
   x1="84.360802"
   y1="63.922901"
   x2="112.39230"
   y2="63.922901">
					<stop
   offset="0"
   style="stop-color:#FFAE00;"
   id="stop1312" />



					<stop
   offset="1"
   style="stop-color:#4C1C00;"
   id="stop1314" />



				</linearGradient>



				<path
   style="fill:url(#linearGradient1575);"
   d="M 91.274000,44.462000 L 102.62900,52.913000 L 107.89800,56.989000 L 108.13300,60.450000 C 108.13300,60.450000 108.56900,66.022000 108.68400,67.493000 C 109.64700,68.265000 112.36100,70.437000 112.36100,70.437000 L 115.22500,72.666000 L 115.24300,77.514000 L 106.53700,83.383000 L 91.566000,71.421000 L 90.394000,68.519000 C 90.394000,68.519000 89.438000,59.416000 89.238000,57.504000 C 87.808000,56.364000 78.696000,49.092000 78.696000,49.092000 L 87.987000,45.578000 L 91.274000,44.462000 z M 112.36300,73.758000 L 112.13800,73.894000 L 105.95100,68.940000 L 105.14300,58.602000 L 105.14300,58.576000 L 105.24000,58.538000 L 100.88700,55.152000 L 91.019000,47.318000 L 91.038000,47.491000 L 91.010000,47.469000 L 84.359000,49.984000 L 91.934000,56.028000 L 93.172000,67.827000 L 93.917000,69.670000 L 106.67900,79.869000 L 112.38800,76.018000 L 112.36300,73.758000 L 112.36300,73.758000 z "
   id="path1317" />



			</g>



			<g
   id="g1320">
				<linearGradient
   id="aigrd9"
   gradientUnits="userSpaceOnUse"
   x1="67.165497"
   y1="57.439499"
   x2="82.072800"
   y2="57.439499"
   gradientTransform="matrix(0.998800,-5.000000e-2,5.000000e-2,0.998800,4.877400,1.059800)">
					<stop
   offset="0"
   style="stop-color:#FFFFE1;"
   id="stop1324" />



					<stop
   offset="1"
   style="stop-color:#FFB800;"
   id="stop1326" />



				</linearGradient>



				<path
   style="fill:url(#linearGradient1576);"
   d="M 74.689000,52.158000 L 84.625000,60.316000 L 89.865000,57.128000 L 79.823000,49.088000 L 74.689000,52.157000 L 74.689000,52.158000 z "
   id="path1329" />



				<linearGradient
   id="aigrd10"
   gradientUnits="userSpaceOnUse"
   x1="60.128899"
   y1="40.611301"
   x2="73.165497"
   y2="40.611301"
   gradientTransform="matrix(1.073600,-5.370000e-2,5.410000e-2,1.082000,2.603200,6.286500)">
					<stop
   offset="0"
   style="stop-color:#FFFFE1;"
   id="stop1333" />



					<stop
   offset="1"
   style="stop-color:#FFB800;"
   id="stop1335" />



				</linearGradient>



				<path
   style="fill:url(#linearGradient1577);"
   d="M 71.419000,52.726000 L 70.675000,50.883000 L 68.523000,30.374000 L 82.648000,41.588000 L 82.328000,58.796000 L 84.182000,62.923000 L 71.419000,52.726000 z "
   id="path1338" />



				<path
   d="M 61.861000,33.040000 L 75.943000,44.275000 L 82.743000,41.594000 L 68.513000,30.524000 L 61.862000,33.040000 L 61.861000,33.040000 z "
   id="path1340" />



				<linearGradient
   id="aigrd11"
   gradientUnits="userSpaceOnUse"
   x1="75.942902"
   y1="52.278301"
   x2="89.891098"
   y2="52.278301">
					<stop
   offset="0"
   style="stop-color:#FFAE00;"
   id="stop1344" />



					<stop
   offset="1"
   style="stop-color:#4C1C00;"
   id="stop1346" />



				</linearGradient>



				<path
   style="fill:url(#linearGradient1578);"
   d="M 75.943000,44.275000 L 82.644000,41.633000 L 83.927000,58.057000 L 84.697000,59.958000 L 89.865000,56.814000 L 89.891000,59.074000 L 84.181000,62.924000 L 81.898000,58.911000 L 80.420000,44.929000 L 75.950000,46.723000 L 75.942000,44.275000 L 75.943000,44.275000 z "
   id="path1349" />



				<linearGradient
   id="aigrd12"
   gradientUnits="userSpaceOnUse"
   x1="61.862301"
   y1="46.979500"
   x2="89.893799"
   y2="46.979500">
					<stop
   offset="0"
   style="stop-color:#FFAE00;"
   id="stop1353" />



					<stop
   offset="1"
   style="stop-color:#4C1C00;"
   id="stop1355" />



				</linearGradient>



				<path
   style="fill:url(#linearGradient1579);"
   d="M 68.776000,27.519000 L 80.131000,35.970000 L 85.400000,40.046000 L 85.636000,43.507000 C 85.636000,43.507000 86.071000,49.079000 86.185000,50.551000 C 87.150000,51.322000 89.863000,53.495000 89.863000,53.495000 L 92.727000,55.724000 L 92.745000,60.570000 L 84.039000,66.440000 L 69.067000,54.477000 L 67.896000,51.575000 C 67.896000,51.575000 66.940000,42.472000 66.740000,40.560000 C 65.311000,39.420000 56.198000,32.149000 56.198000,32.149000 L 65.490000,28.635000 L 68.777000,27.518000 L 68.776000,27.519000 z M 89.865000,56.813000 L 89.640000,56.950000 L 83.454000,51.996000 L 82.645000,41.658000 L 82.645000,41.632000 L 82.742000,41.594000 L 78.389000,38.208000 L 68.521000,30.374000 L 68.539000,30.547000 L 68.511000,30.525000 L 61.860000,33.041000 L 69.435000,39.085000 L 70.674000,50.884000 L 71.418000,52.727000 L 84.180000,62.925000 L 89.890000,59.075000 L 89.864000,56.815000 L 89.865000,56.813000 z "
   id="path1358" />



			</g>



		</g>



		<path
   style="stroke:none;"
   d="M 14.394000,42.281000 C 14.394000,44.022000 14.458000,66.406000 14.458000,67.710000 C 15.418000,68.586000 71.593000,119.43200 73.136000,120.84200 C 74.972000,119.84100 117.03200,97.691000 118.56600,96.858000 C 118.56600,95.106000 118.46200,72.741000 118.46200,71.430000 C 117.49200,70.553000 58.190000,26.226000 56.641000,24.818000 C 54.810000,25.828000 15.914000,41.443000 14.395000,42.281000 L 14.394000,42.281000 z "
   id="path1362" />



		<linearGradient
   id="aigrd13"
   gradientUnits="userSpaceOnUse"
   x1="59.021000"
   y1="122.72360"
   x2="59.021000"
   y2="122.72360">
			<stop
   offset="0"
   style="stop-color:#FFFFE1;"
   id="stop1366" />



			<stop
   offset="1"
   style="stop-color:#FFB800;"
   id="stop1368" />



		</linearGradient>



		<path
   style="fill:url(#linearGradient1580);stroke:none;"
   id="path1371"
   d="" />



		<path
   style="stroke:#000000;stroke-width:1.0000000;"
   id="path1373"
   d="" />



		<path
   style="stroke:#000000;stroke-width:1.0000000;"
   id="path1375"
   d="" />



		<path
   style="stroke:#000000;stroke-width:1.0000000;"
   id="path1377"
   d="" />



		<path
   style="stroke:#000000;stroke-width:1.0000000;"
   id="path1379"
   d="" />



		<linearGradient
   id="aigrd14"
   gradientUnits="userSpaceOnUse"
   x1="-46.780300"
   y1="-14.248000"
   x2="119.89420"
   y2="114.79030">
			<stop
   offset="0"
   style="stop-color:#FFFFFF;"
   id="stop1383" />



			<stop
   offset="1"
   style="stop-color:#36364C;"
   id="stop1385" />



		</linearGradient>



		<path
   style="fill:url(#linearGradient1581);stroke:none;"
   d="M 59.132000,21.975000 C 60.455000,23.090000 80.767000,38.339000 95.599000,49.474000 C 116.49700,65.162000 120.53300,68.205000 120.99800,68.626000 C 121.78600,69.339000 122.23700,70.367000 122.24300,71.430000 L 122.34700,96.858000 C 122.35300,98.265000 121.61700,99.522000 120.37200,100.18000 L 74.944000,124.16200 C 73.539000,124.90400 71.763000,124.70000 70.585000,123.63300 L 11.908000,70.503000 C 11.119000,69.789000 10.679000,68.775000 10.676000,67.710000 L 10.612000,42.281000 C 10.608000,40.899000 11.359000,39.635000 12.570000,38.968000 C 13.365000,38.530000 17.771000,36.717000 32.508000,30.710000 C 41.921000,26.874000 53.635000,22.098000 54.866000,21.480000 L 54.814000,21.508000 C 56.179000,20.780000 57.951000,20.978000 59.133000,21.976000 L 59.132000,21.975000 z M 14.394000,42.281000 C 14.394000,42.422000 14.458000,64.805000 14.458000,67.710000 C 15.418000,68.586000 71.593000,119.43200 73.136000,120.84200 C 74.972000,119.84100 117.03200,97.691000 118.56600,96.858000 C 118.56600,95.106000 118.46200,72.741000 118.46200,71.430000 C 117.49200,70.553000 58.190000,26.226000 56.641000,24.818000 C 54.810000,25.828000 15.914000,41.443000 14.395000,42.281000 L 14.394000,42.281000 z "
   id="path1388" />



		<linearGradient
   id="aigrd15"
   gradientUnits="userSpaceOnUse"
   x1="115.06400"
   y1="88.609398"
   x2="67.660004"
   y2="106.86000">
			<stop
   offset="0"
   style="stop-color:#FFFFFF;"
   id="stop1392" />



			<stop
   offset="1"
   style="stop-color:#4B4B73;"
   id="stop1394" />



		</linearGradient>



		<path
   style="fill:url(#linearGradient1582);stroke:none;"
   d="M 75.171000,99.623000 L 75.136000,118.31200 L 116.99000,96.551000 L 116.99000,73.535000 L 104.01300,80.139000 L 103.99100,88.052000 L 90.125000,95.380000 L 90.133000,87.202000 L 77.467000,93.645000 C 77.467000,93.645000 76.002000,94.684000 75.571000,96.457000 C 75.141000,98.231000 75.173000,99.623000 75.173000,99.623000 L 75.171000,99.623000 z "
   id="path1397" />



		<linearGradient
   id="aigrd16"
   gradientUnits="userSpaceOnUse"
   x1="66.248497"
   y1="36.282700"
   x2="69.040100"
   y2="118.63490">
			<stop
   offset="0"
   style="stop-color:#FFFFFF;"
   id="stop1401" />



			<stop
   offset="1"
   style="stop-color:#4B4B73;"
   id="stop1403" />



		</linearGradient>



		<path
   style="fill:url(#linearGradient1583);stroke:none;"
   d="M 56.640000,26.086000 L 116.99000,71.802000 L 103.66800,78.940000 C 103.66800,78.940000 96.549000,73.604000 95.650000,72.969000 C 94.752000,72.335000 90.082000,68.053000 83.369000,71.604000 C 78.081000,74.674000 82.346000,79.110000 82.346000,79.110000 L 89.852000,85.762000 L 77.454000,92.041000 C 77.454000,92.041000 75.431000,92.721000 74.138000,92.604000 C 72.843000,92.483000 71.263000,91.176000 71.263000,91.176000 L 16.928000,42.704000 L 56.640000,26.086000 z "
   id="path1406" />



		<linearGradient
   id="aigrd17"
   gradientUnits="userSpaceOnUse"
   x1="96.926300"
   y1="91.379898"
   x2="90.116798"
   y2="71.006203">
			<stop
   offset="0"
   style="stop-color:#FFFFFF;"
   id="stop1410" />



			<stop
   offset="0.1023"
   style="stop-color:#DCDCE4;"
   id="stop1412" />



			<stop
   offset="0.2513"
   style="stop-color:#B0B0C2;"
   id="stop1414" />



			<stop
   offset="0.4021"
   style="stop-color:#8C8CA5;"
   id="stop1416" />



			<stop
   offset="0.5524"
   style="stop-color:#6F6F8F;"
   id="stop1418" />



			<stop
   offset="0.7024"
   style="stop-color:#5B5B80;"
   id="stop1420" />



			<stop
   offset="0.8517"
   style="stop-color:#4F4F76;"
   id="stop1422" />



			<stop
   offset="1"
   style="stop-color:#4B4B73;"
   id="stop1424" />



		</linearGradient>



		<path
   style="fill:url(#linearGradient1584);stroke:none;"
   d="M 84.320000,73.239000 L 84.318000,73.239000 C 83.295000,73.835000 82.726000,74.479000 82.629000,75.159000 C 82.617000,75.239000 82.611000,75.321000 82.611000,75.405000 C 82.611000,76.230000 83.155000,77.159000 83.663000,77.751000 C 83.795000,77.866000 92.191000,85.249000 92.191000,85.249000 C 92.191000,85.249000 92.225000,89.958000 92.240000,91.957000 C 94.283000,90.878000 101.33800,87.149000 102.14800,86.722000 C 102.14900,85.814000 102.15600,80.942000 102.15800,80.173000 C 101.46500,79.657000 94.449000,74.432000 94.449000,74.432000 C 94.420000,74.389000 94.037000,74.117000 94.037000,74.117000 C 92.412000,72.941000 89.033000,70.493000 84.320000,73.240000 L 84.320000,73.239000 z "
   id="path1427" />



		<linearGradient
   id="aigrd18"
   gradientUnits="userSpaceOnUse"
   x1="20.672899"
   y1="47.140099"
   x2="81.651497"
   y2="136.00800">
			<stop
   offset="0"
   style="stop-color:#FFFFFF;"
   id="stop1431" />



			<stop
   offset="1"
   style="stop-color:#4B4B73;"
   id="stop1433" />



		</linearGradient>



		<path
   style="fill:url(#linearGradient1585);stroke:none;"
   d="M 72.562000,98.980000 L 72.597000,117.67000 L 15.661000,66.362000 L 15.661000,43.971000 L 70.345000,93.003000 C 70.345000,93.003000 71.761000,94.040000 72.177000,95.814000 C 72.593000,97.589000 72.563000,98.981000 72.563000,98.981000 L 72.562000,98.980000 z "
   id="path1436" />



		<linearGradient
   id="aigrd19"
   gradientUnits="userSpaceOnUse"
   x1="85.869598"
   y1="20.897499"
   x2="85.869598"
   y2="106.56310">
			<stop
   offset="0"
   style="stop-color:#FFFFFF;"
   id="stop1440" />



			<stop
   offset="1"
   style="stop-color:#4B4B73;"
   id="stop1442" />



		</linearGradient>



		<path
   style="fill:url(#linearGradient1586);stroke:none;"
   d="M 66.252000,56.538000 C 81.693000,46.138000 56.138000,31.913000 56.640000,27.495000 L 115.09900,71.980000 L 104.00900,77.575000 L 95.650000,71.263000 C 95.650000,71.263000 89.582000,66.664000 82.515000,70.410000 C 75.521000,74.334000 80.980000,80.133000 80.980000,80.133000 L 87.632000,85.762000 L 74.907000,91.918000 C 74.907000,91.918000 49.720000,67.671000 66.252000,56.537000 L 66.252000,56.538000 z "
   id="path1445" />



		<g
   style="stroke:none;"
   id="g1447">
			<g
   id="g1449">
				<linearGradient
   id="aigrd20"
   gradientUnits="userSpaceOnUse"
   x1="38.502899"
   y1="111.81450"
   x2="69.799797"
   y2="111.81450">
					<stop
   offset="0"
   style="stop-color:#FFAE00;"
   id="stop1453" />



					<stop
   offset="1"
   style="stop-color:#4C1C00;"
   id="stop1455" />



				</linearGradient>



				<path
   style="fill:url(#linearGradient1587);"
   d="M 55.067000,89.538000 L 69.800000,103.04200 L 69.580000,108.19400 C 69.580000,108.19400 64.232000,110.83900 64.027000,110.94000 C 63.649000,113.32900 61.669000,125.82100 61.669000,125.82100 C 61.669000,125.82100 60.372000,127.90500 60.285000,128.04400 C 60.225000,128.15500 59.639000,129.24300 59.639000,129.24300 L 49.844000,134.09100 L 38.503000,122.99500 L 38.830000,117.55900 C 38.830000,117.55900 43.999000,115.01400 45.043000,114.50000 C 45.012000,112.83200 44.684000,94.576000 44.684000,94.576000 L 53.333000,90.379000 L 55.067000,89.537000 L 55.067000,89.538000 z M 54.571000,92.932000 L 66.910000,104.24000 C 66.910000,104.24000 66.910000,104.24000 66.818000,106.39500 C 64.675000,107.45600 62.183000,108.68800 61.455000,109.04800 C 61.184000,110.75800 58.957000,124.80900 58.957000,124.80900 L 57.829000,126.62200 L 57.570000,127.10300 L 50.389000,130.65700 L 41.412000,121.87400 L 41.564000,119.37600 C 41.564000,119.37600 46.215000,117.08000 46.965000,116.71600 C 47.107000,116.51300 47.895000,115.37200 47.895000,115.37200 L 47.552000,96.338000 L 54.571000,92.932000 L 54.571000,92.932000 z "
   id="path1458" />



				<linearGradient
   id="aigrd21"
   gradientUnits="userSpaceOnUse"
   x1="53.175301"
   y1="107.91990"
   x2="83.902603"
   y2="107.91990"
   gradientTransform="matrix(0.999300,3.700000e-2,-3.700000e-2,0.999300,-1.430000,1.806200)">
					<stop
   offset="0"
   style="stop-color:#FFAE00;"
   id="stop1462" />



					<stop
   offset="1"
   style="stop-color:#4C1C00;"
   id="stop1464" />



				</linearGradient>



				<path
   style="fill:url(#linearGradient1588);"
   d="M 47.552000,96.338000 L 47.895000,115.37200 C 47.895000,115.37200 47.106000,116.51300 46.965000,116.71600 C 46.215000,117.08000 41.564000,119.37600 41.564000,119.37600 L 41.412000,121.87400 L 50.389000,130.65700 L 57.570000,127.10300 L 57.829000,126.62200 L 58.957000,124.80900 C 58.957000,124.80900 61.184000,110.75800 61.455000,109.04800 C 62.183000,108.68800 64.676000,107.45500 66.818000,106.39500 C 66.910000,104.24000 66.910000,104.24000 66.910000,104.24000 L 54.571000,92.932000 L 47.552000,96.338000 L 47.552000,96.338000 z "
   id="path1467" />



				<path
   d="M 47.552000,96.338000 L 59.740000,107.78800 L 66.910000,104.24000 L 54.571000,92.932000 L 47.552000,96.338000 L 47.552000,96.338000 z "
   id="path1469" />



				<linearGradient
   id="aigrd22"
   gradientUnits="userSpaceOnUse"
   x1="52.447300"
   y1="107.13960"
   x2="65.050301"
   y2="107.13960"
   gradientTransform="matrix(0.999300,3.700000e-2,-3.700000e-2,0.999300,-1.430000,1.806200)">
					<stop
   offset="0"
   style="stop-color:#FFFFE1;"
   id="stop1473" />



					<stop
   offset="1"
   style="stop-color:#FFB800;"
   id="stop1475" />



				</linearGradient>



				<path
   style="fill:url(#linearGradient1589);"
   d="M 46.922000,116.77400 L 47.895000,115.37200 L 47.552000,96.338000 L 59.740000,107.78800 L 57.149000,124.13600 L 56.210000,125.64600 L 46.922000,116.77500 L 46.922000,116.77400 z "
   id="path1478" />



				<linearGradient
   id="aigrd23"
   gradientUnits="userSpaceOnUse"
   x1="47.275398"
   y1="118.81930"
   x2="62.183102"
   y2="118.81930"
   gradientTransform="matrix(0.999300,3.700000e-2,-3.700000e-2,0.999300,-1.430000,1.806200)">
					<stop
   offset="0"
   style="stop-color:#FFFFE1;"
   id="stop1482" />



					<stop
   offset="1"
   style="stop-color:#FFB800;"
   id="stop1484" />



				</linearGradient>



				<path
   style="fill:url(#linearGradient1590);"
   d="M 41.524000,119.37500 L 50.713000,128.36600 L 56.210000,125.64500 L 46.905000,116.76300 L 41.525000,119.37400 L 41.524000,119.37500 z "
   id="path1487" />



				<linearGradient
   id="aigrd24"
   gradientUnits="userSpaceOnUse"
   x1="18.795900"
   y1="94.094704"
   x2="50.092800"
   y2="94.094704">
					<stop
   offset="0"
   style="stop-color:#FFAE00;"
   id="stop1491" />



					<stop
   offset="1"
   style="stop-color:#4C1C00;"
   id="stop1493" />



				</linearGradient>



				<path
   style="fill:url(#linearGradient1591);"
   d="M 35.360000,71.819000 L 50.093000,85.322000 L 49.873000,90.473000 C 49.873000,90.473000 44.525000,93.119000 44.320000,93.220000 C 43.942000,95.608000 41.962000,108.10000 41.962000,108.10000 C 41.962000,108.10000 40.665000,110.18600 40.578000,110.32500 C 40.518000,110.43400 39.933000,111.52300 39.933000,111.52300 L 30.137000,116.37000 L 18.797000,105.27500 L 19.123000,99.839000 C 19.123000,99.839000 24.292000,97.293000 25.336000,96.779000 C 25.306000,95.111000 24.977000,76.856000 24.977000,76.856000 L 33.626000,72.659000 L 35.360000,71.818000 L 35.360000,71.819000 z M 34.864000,75.212000 L 47.203000,86.521000 C 47.203000,86.521000 47.203000,86.521000 47.110000,88.675000 C 44.968000,89.736000 42.475000,90.969000 41.747000,91.329000 C 41.476000,93.038000 39.249000,107.08900 39.249000,107.08900 L 38.121000,108.90200 L 37.862000,109.38200 L 30.681000,112.93600 L 21.704000,104.15300 L 21.855000,101.65500 C 21.855000,101.65500 26.506000,99.360000 27.256000,98.995000 C 27.398000,98.792000 28.186000,97.651000 28.186000,97.651000 L 27.844000,78.618000 L 34.862000,75.212000 L 34.864000,75.212000 z "
   id="path1496" />



				<linearGradient
   id="aigrd25"
   gradientUnits="userSpaceOnUse"
   x1="32.825699"
   y1="90.940399"
   x2="63.553600"
   y2="90.940399"
   gradientTransform="matrix(0.999300,3.700000e-2,-3.700000e-2,0.999300,-1.430000,1.806200)">
					<stop
   offset="0"
   style="stop-color:#FFAE00;"
   id="stop1500" />



					<stop
   offset="1"
   style="stop-color:#4C1C00;"
   id="stop1502" />



				</linearGradient>



				<path
   style="fill:url(#linearGradient1592);"
   d="M 27.846000,78.618000 L 28.188000,97.651000 C 28.188000,97.651000 27.400000,98.792000 27.258000,98.995000 C 26.508000,99.360000 21.857000,101.65500 21.857000,101.65500 L 21.706000,104.15300 L 30.683000,112.93600 L 37.864000,109.38200 L 38.123000,108.90200 L 39.251000,107.08900 C 39.251000,107.08900 41.478000,93.038000 41.749000,91.329000 C 42.477000,90.969000 44.970000,89.735000 47.112000,88.675000 C 47.205000,86.521000 47.205000,86.521000 47.205000,86.521000 L 34.864000,75.212000 L 27.846000,78.618000 L 27.846000,78.618000 z "
   id="path1505" />



				<path
   d="M 27.846000,78.618000 L 40.033000,90.067000 L 47.203000,86.520000 L 34.864000,75.212000 L 27.846000,78.618000 L 27.846000,78.618000 z "
   id="path1507" />



				<linearGradient
   id="aigrd26"
   gradientUnits="userSpaceOnUse"
   x1="32.098099"
   y1="90.161102"
   x2="44.700699"
   y2="90.161102"
   gradientTransform="matrix(0.999300,3.700000e-2,-3.700000e-2,0.999300,-1.430000,1.806200)">
					<stop
   offset="0"
   style="stop-color:#FFFFE1;"
   id="stop1511" />



					<stop
   offset="1"
   style="stop-color:#FFB800;"
   id="stop1513" />



				</linearGradient>



				<path
   style="fill:url(#linearGradient1593);"
   d="M 27.214000,99.055000 L 28.187000,97.652000 L 27.845000,78.619000 L 40.032000,90.068000 L 37.441000,106.41600 L 36.502000,107.92700 L 27.214000,99.056000 L 27.214000,99.055000 z "
   id="path1516" />



				<linearGradient
   id="aigrd27"
   gradientUnits="userSpaceOnUse"
   x1="26.925800"
   y1="101.83980"
   x2="41.833500"
   y2="101.83980"
   gradientTransform="matrix(0.999300,3.700000e-2,-3.700000e-2,0.999300,-1.430000,1.806200)">
					<stop
   offset="0"
   style="stop-color:#FFFFE1;"
   id="stop1520" />



					<stop
   offset="1"
   style="stop-color:#FFB800;"
   id="stop1522" />



				</linearGradient>



				<path
   style="fill:url(#linearGradient1594);"
   d="M 21.817000,101.65400 L 31.006000,110.64500 L 36.503000,107.92500 L 27.197000,99.043000 L 21.817000,101.65300 L 21.817000,101.65400 z "
   id="path1525" />



				<linearGradient
   id="aigrd28"
   gradientUnits="userSpaceOnUse"
   x1="0.20900001"
   y1="76.534203"
   x2="31.505899"
   y2="76.534203">
					<stop
   offset="0"
   style="stop-color:#FFAE00;"
   id="stop1529" />



					<stop
   offset="1"
   style="stop-color:#4C1C00;"
   id="stop1531" />



				</linearGradient>



				<path
   style="fill:url(#linearGradient1595);"
   d="M 16.773000,54.258000 L 31.506000,67.761000 L 31.286000,72.912000 C 31.286000,72.912000 25.938000,75.558000 25.733000,75.660000 C 25.354000,78.048000 23.375000,90.539000 23.375000,90.539000 C 23.375000,90.539000 22.078000,92.625000 21.991000,92.764000 C 21.932000,92.873000 21.345000,93.963000 21.345000,93.963000 L 11.550000,98.810000 L 0.20900000,87.716000 L 0.53500000,82.280000 C 0.53500000,82.280000 5.7040000,79.734000 6.7490000,79.220000 C 6.7190000,77.552000 6.3900000,59.297000 6.3900000,59.297000 L 15.038000,55.100000 L 16.772000,54.258000 L 16.773000,54.258000 z M 16.277000,57.651000 L 28.616000,68.960000 C 28.616000,68.960000 28.616000,68.960000 28.524000,71.115000 C 26.382000,72.175000 23.889000,73.409000 23.161000,73.768000 C 22.890000,75.477000 20.663000,89.529000 20.663000,89.529000 L 19.535000,91.342000 L 19.276000,91.823000 L 12.095000,95.376000 L 3.1180000,86.593000 L 3.2690000,84.095000 C 3.2690000,84.095000 7.9200000,81.799000 8.6700000,81.436000 C 8.8120000,81.232000 9.6000000,80.091000 9.6000000,80.091000 L 9.2590000,61.057000 L 16.277000,57.651000 z "
   id="path1534" />



			</g>



			<linearGradient
   id="aigrd29"
   gradientUnits="userSpaceOnUse"
   x1="13.601600"
   y1="74.080101"
   x2="44.328800"
   y2="74.080101"
   gradientTransform="matrix(0.999300,3.700000e-2,-3.700000e-2,0.999300,-1.430000,1.806200)">
				<stop
   offset="0"
   style="stop-color:#FFAE00;"
   id="stop1539" />



				<stop
   offset="1"
   style="stop-color:#4C1C00;"
   id="stop1541" />



			</linearGradient>



			<path
   style="fill:url(#linearGradient1596);"
   d="M 9.2590000,61.057000 L 9.6010000,80.091000 C 9.6010000,80.091000 8.8120000,81.232000 8.6710000,81.436000 C 7.9210000,81.799000 3.2700000,84.095000 3.2700000,84.095000 L 3.1190000,86.593000 L 12.096000,95.376000 L 19.277000,91.823000 L 19.536000,91.342000 L 20.664000,89.529000 C 20.664000,89.529000 22.890000,75.477000 23.162000,73.768000 C 23.890000,73.409000 26.384000,72.175000 28.525000,71.115000 C 28.617000,68.960000 28.617000,68.960000 28.617000,68.960000 L 16.277000,57.651000 L 9.2590000,61.057000 z "
   id="path1544" />



			<path
   d="M 9.2590000,61.057000 L 21.447000,72.506000 L 28.617000,68.960000 L 16.277000,57.651000 L 9.2590000,61.057000 z "
   id="path1546" />



			<linearGradient
   id="aigrd30"
   gradientUnits="userSpaceOnUse"
   x1="12.874000"
   y1="73.300797"
   x2="25.477100"
   y2="73.300797"
   gradientTransform="matrix(0.999300,3.700000e-2,-3.700000e-2,0.999300,-1.430000,1.806200)">
				<stop
   offset="0"
   style="stop-color:#FFFFE1;"
   id="stop1550" />



				<stop
   offset="1"
   style="stop-color:#FFB800;"
   id="stop1552" />



			</linearGradient>



			<path
   style="fill:url(#linearGradient1597);"
   d="M 8.6280000,81.495000 L 9.6010000,80.091000 L 9.2590000,61.057000 L 21.447000,72.506000 L 18.856000,88.855000 L 17.916000,90.366000 L 8.6280000,81.495000 z "
   id="path1555" />



			<linearGradient
   id="aigrd31"
   gradientUnits="userSpaceOnUse"
   x1="7.7017002"
   y1="84.978500"
   x2="22.609400"
   y2="84.978500"
   gradientTransform="matrix(0.999300,3.700000e-2,-3.700000e-2,0.999300,-1.430000,1.806200)">
				<stop
   offset="0"
   style="stop-color:#FFFFE1;"
   id="stop1559" />



				<stop
   offset="1"
   style="stop-color:#FFB800;"
   id="stop1561" />



			</linearGradient>



			<path
   style="fill:url(#linearGradient1598);"
   d="M 3.2300000,84.095000 L 12.419000,93.085000 L 17.915000,90.366000 L 8.6100000,81.483000 L 3.2300000,84.094000 L 3.2300000,84.095000 z "
   id="path1564" />



		</g>



	</g>



</g>


<path
   style="fill:url(#linearGradient1710);fill-opacity:1.0000000;fill-rule:evenodd;stroke:#000000;stroke-width:2.1714578;stroke-linecap:butt;stroke-linejoin:round;stroke-miterlimit:4.0000000;stroke-opacity:1.0000000"
   d="M -38.963428,41.950798 C -52.010681,42.918110 -63.895611,51.439721 -68.432178,64.450798 L -56.619678,68.388298 C -52.736461,58.416253 -41.573185,52.900457 -31.119678,56.075798 C -20.331134,59.352910 -14.418622,70.615691 -17.932178,81.200798 C -21.445734,91.785908 -33.049881,97.696658 -43.838428,94.419548 C -45.685165,93.858588 -47.238443,93.053138 -48.744678,92.075798 L -42.963428,84.357048 L -76.463428,76.763298 L -62.588428,108.16955 L -56.838428,101.79455 L -56.744678,101.66955 C -53.933280,103.74869 -51.124856,105.33103 -47.682178,106.48205 C -30.173494,112.33586 -11.043438,102.98640 -4.9946776,85.638298 C 1.0540824,68.290196 -8.2672436,49.460862 -25.775928,43.607048 C -30.153099,42.143595 -34.614344,41.628361 -38.963428,41.950798 z "
   id="path1063" />




  
  

</svg>