<?xml version="1.0" encoding="UTF-8" standalone="no"?>
<!DOCTYPE svg PUBLIC "-//W3C//DTD SVG 20010904//EN"
"http://www.w3.org/TR/2001/REC-SVG-20010904/DTD/svg10.dtd">
<!-- Created with Inkscape (http://www.inkscape.org/) -->
<svg
   id="svg1"
   sodipodi:version="0.32"
   inkscape:version="0.39"
   width="102.40000pt"
   height="102.40000pt"
   sodipodi:docbase="/home/electronerd/devproj/ktechlab/icons/pics/SVG"
   sodipodi:docname="rotary.svg"
   inkscape:export-filename="/home/electronerd/devproj/ktechlab/icons/pics/rotary.png"
   inkscape:export-xdpi="72.000000"
   inkscape:export-ydpi="72.000000"
   xmlns="http://www.w3.org/2000/svg"
   xmlns:cc="http://web.resource.org/cc/"
   xmlns:inkscape="http://www.inkscape.org/namespaces/inkscape"
   xmlns:sodipodi="http://sodipodi.sourceforge.net/DTD/sodipodi-0.dtd"
   xmlns:rdf="http://www.w3.org/1999/02/22-rdf-syntax-ns#"
   xmlns:dc="http://purl.org/dc/elements/1.1/"
   xmlns:xlink="http://www.w3.org/1999/xlink">
  <defs
     id="defs3" />
  <sodipodi:namedview
     id="base"
     pagecolor="#ffffff"
     bordercolor="#666666"
     borderopacity="1.0"
     inkscape:pageopacity="0.0"
     inkscape:pageshadow="2"
     inkscape:zoom="8.5989018"
     inkscape:cx="71.746269"
     inkscape:cy="43.043458"
     inkscape:window-width="1592"
     inkscape:window-height="1144"
     borderlayer="top"
     inkscape:window-x="0"
     inkscape:window-y="25" />
  <metadata
     id="metadata4">
    <rdf:RDF
       id="RDF5">
      <cc:Work
         rdf:about=""
         id="Work6">
        <dc:format
           id="format7">image/svg+xml</dc:format>
        <dc:type
           id="type9"
           rdf:resource="http://purl.org/dc/dcmitype/StillImage" />
      </cc:Work>
    </rdf:RDF>
  </metadata>
  <path
     sodipodi:type="arc"
     style="fill:none;fill-opacity:0.75000000;fill-rule:evenodd;stroke:#000000;stroke-width:1.5039992;stroke-linecap:butt;stroke-linejoin:miter;stroke-miterlimit:4.0000000;stroke-opacity:1.0000000;"
     id="path919"
     sodipodi:cx="88.814178"
     sodipodi:cy="90.676865"
     sodipodi:rx="6.1075649"
     sodipodi:ry="6.1075649"
     d="M 94.921743 90.676865 A 6.1075649 6.1075649 0 1 0 82.706614,90.676865 A 6.1075649 6.1075649 0 1 0 94.921743 90.676865 z"
     transform="matrix(2.363867,0.000000,0.000000,2.363867,-145.9040,-147.6628)" />
  <path
     sodipodi:type="arc"
     style="fill:none;fill-opacity:0.75000000;fill-rule:evenodd;stroke:#000000;stroke-width:2.1315303;stroke-linecap:butt;stroke-linejoin:miter;stroke-miterlimit:4.0000000;stroke-opacity:1.0000000;"
     id="path930"
     sodipodi:cx="30.075237"
     sodipodi:cy="88.688538"
     sodipodi:rx="4.2344198"
     sodipodi:ry="4.2344198"
     d="M 34.309657 88.688538 A 4.2344198 4.2344198 0 1 0 25.840817,88.688538 A 4.2344198 4.2344198 0 1 0 34.309657 88.688538 z"
     transform="matrix(1.667935,0.000000,0.000000,1.667935,60.24253,-54.56369)" />
  <path
     sodipodi:type="arc"
     style="fill:none;fill-opacity:0.75000000;fill-rule:evenodd;stroke:#000000;stroke-width:2.1315303;stroke-linecap:butt;stroke-linejoin:miter;stroke-miterlimit:4.0000000;stroke-opacity:1.0000000;"
     id="path932"
     sodipodi:cx="30.075237"
     sodipodi:cy="88.688538"
     sodipodi:rx="4.2344198"
     sodipodi:ry="4.2344198"
     d="M 34.309657 88.688538 A 4.2344198 4.2344198 0 1 0 25.840817,88.688538 A 4.2344198 4.2344198 0 1 0 34.309657 88.688538 z"
     transform="matrix(1.667935,0.000000,0.000000,1.667935,67.30328,-84.96547)" />
  <path
     sodipodi:type="arc"
     style="fill:none;fill-opacity:0.75000000;fill-rule:evenodd;stroke:#000000;stroke-width:2.1315303;stroke-linecap:butt;stroke-linejoin:miter;stroke-miterlimit:4.0000000;stroke-opacity:1.0000000;"
     id="path933"
     sodipodi:cx="30.075237"
     sodipodi:cy="88.688538"
     sodipodi:rx="4.2344198"
     sodipodi:ry="4.2344198"
     d="M 34.309657 88.688538 A 4.2344198 4.2344198 0 1 0 25.840817,88.688538 A 4.2344198 4.2344198 0 1 0 34.309657 88.688538 z"
     transform="matrix(1.667935,0.000000,0.000000,1.667935,55.93609,-114.8991)" />
  <path
     sodipodi:type="arc"
     style="fill:none;fill-opacity:0.75000000;fill-rule:evenodd;stroke:#000000;stroke-width:2.1315303;stroke-linecap:butt;stroke-linejoin:miter;stroke-miterlimit:4.0000000;stroke-opacity:1.0000000;"
     id="path934"
     sodipodi:cx="30.075237"
     sodipodi:cy="88.688538"
     sodipodi:rx="4.2344198"
     sodipodi:ry="4.2344198"
     d="M 34.309657 88.688538 A 4.2344198 4.2344198 0 1 0 25.840817,88.688538 A 4.2344198 4.2344198 0 1 0 34.309657 88.688538 z"
     transform="matrix(1.667935,0.000000,0.000000,1.667935,28.65481,-132.1393)" />
  <path
     sodipodi:type="arc"
     style="fill:none;fill-opacity:0.75000000;fill-rule:evenodd;stroke:#000000;stroke-width:2.1315303;stroke-linecap:butt;stroke-linejoin:miter;stroke-miterlimit:4.0000000;stroke-opacity:1.0000000;"
     id="path935"
     sodipodi:cx="30.075237"
     sodipodi:cy="88.688538"
     sodipodi:rx="4.2344198"
     sodipodi:ry="4.2344198"
     d="M 34.309657 88.688538 A 4.2344198 4.2344198 0 1 0 25.840817,88.688538 A 4.2344198 4.2344198 0 1 0 34.309657 88.688538 z"
     transform="matrix(1.667935,0.000000,0.000000,1.667935,-1.847194,-132.5182)" />
  <path
     sodipodi:type="arc"
     style="fill:none;fill-opacity:0.75000000;fill-rule:evenodd;stroke:#000000;stroke-width:2.1315303;stroke-linecap:butt;stroke-linejoin:miter;stroke-miterlimit:4.0000000;stroke-opacity:1.0000000;"
     id="path936"
     sodipodi:cx="30.075237"
     sodipodi:cy="88.688538"
     sodipodi:rx="4.2344198"
     sodipodi:ry="4.2344198"
     d="M 34.309657 88.688538 A 4.2344198 4.2344198 0 1 0 25.840817,88.688538 A 4.2344198 4.2344198 0 1 0 34.309657 88.688538 z"
     transform="matrix(1.667935,0.000000,0.000000,1.667935,-28.93902,-113.7624)" />
  <path
     sodipodi:type="arc"
     style="fill:none;fill-opacity:0.75000000;fill-rule:evenodd;stroke:#000000;stroke-width:2.1315303;stroke-linecap:butt;stroke-linejoin:miter;stroke-miterlimit:4.0000000;stroke-opacity:1.0000000;"
     id="path937"
     sodipodi:cx="30.075237"
     sodipodi:cy="88.688538"
     sodipodi:rx="4.2344198"
     sodipodi:ry="4.2344198"
     d="M 34.309657 88.688538 A 4.2344198 4.2344198 0 1 0 25.840817,88.688538 A 4.2344198 4.2344198 0 1 0 34.309657 88.688538 z"
     transform="matrix(1.667935,0.000000,0.000000,1.667935,-40.30623,-84.77603)" />
  <path
     sodipodi:type="arc"
     style="fill:none;fill-opacity:0.75000000;fill-rule:evenodd;stroke:#000000;stroke-width:2.1315303;stroke-linecap:butt;stroke-linejoin:miter;stroke-miterlimit:4.0000000;stroke-opacity:1.0000000;"
     id="path938"
     sodipodi:cx="30.075237"
     sodipodi:cy="88.688538"
     sodipodi:rx="4.2344198"
     sodipodi:ry="4.2344198"
     d="M 34.309657 88.688538 A 4.2344198 4.2344198 0 1 0 25.840817,88.688538 A 4.2344198 4.2344198 0 1 0 34.309657 88.688538 z"
     transform="matrix(1.667935,0.000000,0.000000,1.667935,-32.15973,-54.08458)" />
  <path
     style="fill:none;fill-opacity:0.75000000;fill-rule:evenodd;stroke:#000000;stroke-width:3.5552540;stroke-linecap:butt;stroke-linejoin:miter;stroke-miterlimit:4.0000000;stroke-opacity:1.0000000;"
     d="M 63.851525,82.853851 C 64.040979,129.08047 64.040979,129.08047 64.040979,129.08047"
     id="path939" />
  <path
     style="fill:none;fill-opacity:0.75000000;fill-rule:evenodd;stroke:#000000;stroke-width:3.5552540;stroke-linecap:butt;stroke-linejoin:miter;stroke-miterlimit:4.0000000;stroke-opacity:1.0000000;"
     d="M 48.126896,65.424140 C 9.8573162,54.246392 9.8573162,54.246392 9.8573162,54.246392"
     id="path940" />
</svg>
