/* XPM */
static const char * formatcolorpicker_xpm[] = {
"22 22 4 1",
" 	c None",
".	c #000000",
"+	c #949194",
"@	c #FFFFFF",
"                      ",
"                      ",
"                      ",
"               ...    ",
"              .....   ",
"              .....   ",
"           ........   ",
"            ......    ",
"           +@...      ",
"          +@@@..      ",
"         +@@@. .      ",
"        +@@@.         ",
"       +@@@.          ",
"      +@@@.           ",
"     +@@@.            ",
"    +@@@.             ",
"    +@@.              ",
"   +@..               ",
"    .                 ",
"                      ",
"                      ",
"                      "};
