/* XPM */
static char * vym_xpm[] = {
"16 16 5 1",
" 	c None",
".	c #0026FF",
"+	c #001EFF",
"@	c #FF0000",
"#	c #1C22E3",
"                ",
"       ...+ @@  ",
"  @@@@@@#@@@    ",
"     ...@+..@@  ",
"     ..@@#..    ",
"  @@ ..@.@@@@@  ",
"    @@@@....    ",
"  @@++......    ",
"      ......    ",
"      .....     ",
"      .....     ",
"       ....     ",
"       ....     ",
"                ",
"                ",
"                "};
